# xmcd
# 
# Track frame offsets:
#     183
#     18323
#     34083
#     52300
#     76798
#     97008
#     114763
#     132575
#     148875
#     167123
#     191570
#     212675
# 
# Disc length: 3088
# 
# Revision: 0
# Processed by: cddbd v1.5.2PL0 Copyright (c) Steve Scherf et al.
# Submitted via: fre:ac v1.0.31
# 
DISCID=a90c0e0c
DTITLE=逹明一派 - 回想
DYEAR=1991
DGENRE=
TTITLE0=迷惘列車
TTITLE1=今夜星光燦爛
TTITLE2=溜冰滾族
TTITLE3=天問
TTITLE4=你還愛我嗎
TTITLE5=後窗
TTITLE6=大亞灣之戀
TTITLE7=我愛你
TTITLE8=天花亂墜
TTITLE9=今天應該很高興
TTITLE10=忘記他是她
TTITLE11=十個救火的少年
EXTD=
EXTT0=
EXTT1=
EXTT2=
EXTT3=
EXTT4=
EXTT5=
EXTT6=
EXTT7=
EXTT8=
EXTT9=
EXTT10=
EXTT11=
PLAYORDER=
